<svg width="28" height="28" viewBox="0 0 28 28" fill="none" xmlns="http://www.w3.org/2000/svg">
<path d="M15.255 27.37L20.0031 18L24.0016 18C25.062 18 26.079 17.5786 26.8289 16.8284C27.5787 16.0783 28 15.0609 28 14C28 12.9391 27.5787 11.9217 26.8289 11.1716C26.079 10.4214 25.062 10 24.0016 10L20.0031 10L15.255 0.63C15.1809 0.443935 15.0527 0.284407 14.8869 0.172081C14.7212 0.0597546 14.5256 -0.000194002 14.3254 -1.28941e-07L9.32731 -3.47413e-07C9.06219 -3.59001e-07 8.80794 0.105356 8.62048 0.292893C8.43302 0.480429 8.3277 0.734783 8.3277 1C8.32997 1.0986 8.34682 1.19633 8.37768 1.29L12.0063 10L7.00821 10L5.28889 6.55C5.20506 6.38356 5.0764 6.24388 4.91744 6.14669C4.75848 6.04951 4.57553 5.9987 4.38924 6L1.01056 6C0.745449 6 0.491194 6.10536 0.303732 6.29289C0.116268 6.48043 0.0109536 6.73478 0.0109536 7C-0.00364907 7.09276 -0.00364907 7.18724 0.0109536 7.28L2.01017 14L0.010953 20.72C-0.00364967 20.8128 -0.00364967 20.9072 0.010953 21C0.010953 21.2652 0.116267 21.5196 0.303731 21.7071C0.491193 21.8946 0.745448 22 1.01056 22L4.38924 22C4.57553 22.0013 4.75848 21.9505 4.91744 21.8533C5.0764 21.7561 5.20506 21.6164 5.28889 21.45L7.00821 18L12.0063 18L8.39767 26.71C8.3668 26.8037 8.34996 26.9014 8.34769 27C8.34769 27.2652 8.453 27.5196 8.64047 27.7071C8.82793 27.8946 9.08219 28 9.3473 28L14.3453 28C14.5421 27.9962 14.7334 27.9344 14.8952 27.8224C15.0571 27.7103 15.1822 27.5529 15.255 27.37ZM10.8567 26L15.0051 16L5.7687 16L3.76948 20L2.34004 20L4.08936 14L2.34004 8L3.76948 8L5.7687 12L15.0051 12L10.8567 2L13.7056 2L18.7736 12L24.0016 12C24.5318 12 25.0403 12.2107 25.4152 12.5858C25.7902 12.9609 26.0008 13.4696 26.0008 14C26.0008 14.5304 25.7902 15.0391 25.4152 15.4142C25.0403 15.7893 24.5318 16 24.0016 16L18.7736 16L13.7056 26L10.8567 26Z" fill="#616161"/>
</svg>
