<svg width="2236" height="720" viewBox="0 0 2236 720" fill="none" xmlns="http://www.w3.org/2000/svg">
<g clip-path="url(#clip0_1509_668)">
<path d="M513.335 582.484L441.037 360L630.354 222.484C676.937 365.217 630.353 497.516 513.335 582.484ZM630.354 222.484L558.055 0H324.018L395.944 222.484H630.354ZM324.018 0H89.9808L18.0553 222.484H252.093L324.018 0ZM17.6827 222.484C-28.5285 365.217 17.6827 497.516 134.701 582.484L206.627 360L17.6827 222.484ZM134.701 582.484L324.018 720L513.335 582.484L324.018 444.969L134.701 582.484Z" fill="black"/>
<path d="M977.683 134.907C947.496 134.907 921.037 154.658 912.465 183.727L808.863 540H877.062L907.621 436.77C907.993 435.652 908.739 434.907 909.857 434.907H1046.63C1047.74 434.907 1048.49 435.652 1048.86 436.77L1078.68 540H1146.5L1042.53 183.727C1034.33 154.658 1007.87 134.907 977.683 134.907ZM1032.09 383.478C1031.72 384.224 1030.97 384.224 1030.23 384.224H925.881C925.136 384.224 924.391 383.851 924.018 383.478C923.645 382.733 923.645 381.987 924.018 381.242L975.819 201.615C976.192 200.497 976.937 199.751 978.055 199.751C979.173 200.124 979.546 200.869 979.919 201.615L1032.09 381.242C1032.09 381.987 1032.09 382.733 1032.09 383.478ZM1348.86 284.72H1414.45V540.373H1363.02L1355.94 518.758C1355.57 518.012 1355.2 517.267 1354.45 516.894C1353.71 516.522 1352.96 516.522 1352.22 516.894C1327.99 535.155 1298.92 545.217 1268.74 545.59C1234.45 545.59 1203.15 525.093 1189.73 493.416C1185.26 482.981 1183.02 472.174 1183.02 460.994V284.72H1248.61V457.267C1248.61 477.764 1265.76 494.534 1286.25 494.534C1307.5 493.416 1328.37 487.826 1347 477.764C1347.74 477.391 1348.49 476.646 1348.12 475.901L1348.86 284.72ZM1904.14 363.727V540.373H1838.92V367.453C1838.92 357.764 1834.83 348.074 1827.74 341.366C1820.66 334.286 1811.35 330.559 1801.29 330.559C1780.04 331.677 1759.17 337.267 1740.17 347.329C1739.42 347.702 1739.05 348.447 1739.05 349.565V540.373H1673.46V140.497H1739.05V300.745C1739.05 301.491 1739.42 302.609 1740.17 302.981C1740.91 303.354 1742.03 303.354 1742.78 302.981C1765.51 288.074 1791.97 279.876 1818.8 279.503C1865.38 279.876 1903.02 317.143 1903.4 363.727H1904.14ZM1570.23 284.72H1610.1V335.404H1570.23C1569.48 335.404 1569.11 335.776 1568.37 336.149C1567.99 336.522 1567.62 337.267 1567.62 338.012V475.155C1567.62 485.963 1576.56 494.907 1587.74 494.907C1593.71 494.907 1602.28 494.907 1610.1 493.789V540C1597.06 543.727 1583.65 545.963 1570.23 545.59C1532.96 545.59 1502.78 515.776 1502.4 478.509V337.64C1502.4 336.149 1501.29 335.404 1499.79 335.031H1460.66V284.348H1500.54C1502.03 284.348 1502.78 283.23 1503.15 281.739V197.515H1568.74V281.739C1568.37 283.23 1569.11 284.348 1570.23 284.72ZM2196.69 191.925C2174.33 156.522 2135.57 135.279 2093.83 135.279C2052.09 135.279 2013.33 156.522 1990.97 191.925C1966.01 228.447 1952.59 279.876 1952.59 340.621C1950.35 393.168 1964.14 444.969 1991.35 489.689C2013.71 525.093 2052.47 546.335 2094.2 546.335C2135.94 546.335 2174.7 525.093 2197.06 489.689C2222.4 452.795 2235.45 401.366 2235.45 340.994C2235.45 280.621 2222.03 228.447 2197.06 191.925H2196.69ZM2143.02 460.621C2130.35 483.727 2114.33 494.907 2094.2 494.907C2074.45 494.907 2058.43 482.981 2045.38 460.621C2028.24 422.981 2020.04 381.987 2021.91 340.621C2020.04 299.255 2028.24 257.888 2045.38 219.876C2058.06 196.77 2074.08 185.59 2093.83 185.59C2113.58 185.59 2129.98 196.77 2142.65 219.876C2159.79 257.515 2167.99 298.509 2166.13 339.876C2168.37 381.615 2160.54 422.981 2143.02 460.621Z" fill="black"/>
</g>
<defs>
<clipPath id="clip0_1509_668">
<rect width="2235.45" height="720" fill="white"/>
</clipPath>
</defs>
</svg>
