<svg width="1008" height="295" viewBox="0 0 1008 295" fill="none" xmlns="http://www.w3.org/2000/svg">
<path d="M629.02 290.92L511.712 173.612L545.414 139.911L662.722 257.219L629.02 290.92ZM848.633 107.171H896.295V285.903H848.633V107.171ZM0.799072 8.18027H48.4611V285.903H0.799072V8.18027ZM99.7894 238.241H269.356V285.903H99.7894V238.241ZM99.7894 122.752H269.356V170.414H99.7894V122.752ZM99.7894 8.18027H269.356V55.8423H99.7894V8.18027ZM737.727 8.18027H1007.2V55.8423H737.727V8.18027ZM422.425 147.5C422.425 93.4219 466.42 48.5097 521.415 48.5097C576.41 48.5097 619.489 93.4219 619.489 147.5C619.489 147.5 619.489 147.5 619.489 148.417H667.151C667.151 148.417 667.151 148.417 667.151 147.5C667.151 66.8412 601.157 0.847656 520.498 0.847656C439.839 0.847656 373.846 66.8412 373.846 147.5C373.846 228.159 438.923 294.152 519.582 294.152V246.49C465.504 245.574 422.425 201.578 422.425 147.5Z" fill="black"/>
</svg>
