<svg width="293" height="71" viewBox="0 0 293 71" fill="none" xmlns="http://www.w3.org/2000/svg">
<path d="M91.2837 22.8328C90.1168 21.7151 88.3664 21.1297 86.8282 21.1297C83.2214 21.1297 80.8346 23.2054 80.8346 27.3568C80.8346 30.0712 82.3197 33.4775 86.8282 33.4775C88.1542 33.4775 89.4272 33.2646 90.8593 32.1469V29.1132H86.2978V25.5472H94.5192V33.8501C92.8749 36.1919 90.2759 37.416 86.7752 37.416C79.4555 37.416 76.6974 32.3066 76.6974 27.3568C76.6974 21.9813 79.8268 17.2444 86.8282 17.2444C89.4272 17.2444 91.761 17.9363 93.9357 20.1717L91.2837 22.8328Z" fill="black"/>
<path d="M101.096 23.4183V30.5502C101.096 32.626 101.998 33.6904 103.854 33.6904C105.658 33.7436 106.878 32.1469 106.878 30.3906V23.4183H110.75V36.8838H107.196L107.037 35.1274C105.817 36.7242 104.332 37.2032 102.687 37.1499C99.6641 37.1499 97.1182 35.7661 97.1182 30.5502V23.4183H101.096Z" fill="black"/>
<path d="M118.282 19.8523C118.282 22.7796 113.826 22.7796 113.826 19.8523C113.826 16.925 118.282 16.925 118.282 19.8523ZM114.091 23.4183V36.8838H118.016V23.4183H114.091Z" fill="black"/>
<path d="M125.23 17.8298V36.8838H121.358V17.8298H125.23Z" fill="black"/>
<path d="M132.55 17.8298V36.8838H128.678V17.8298H132.55Z" fill="black"/>
<path d="M139.127 31.455C139.339 32.7856 140.559 33.8501 142.786 33.8501C143.847 33.8501 145.332 33.584 146.287 32.7856L148.462 35.2339C147.03 36.6709 144.696 37.2032 142.68 37.2032C137.801 37.2032 135.149 34.3291 135.149 30.018C135.149 25.9198 137.907 23.0457 142.256 23.0457C146.818 23.0457 149.788 25.9198 148.939 31.4018L139.127 31.455ZM145.492 28.581C145.385 27.0907 143.9 26.452 142.309 26.452C140.718 26.452 139.551 27.2504 139.18 28.581H145.492Z" fill="black"/>
<path d="M155.198 23.4715L155.516 24.9618C156.418 23.6844 157.585 23.1522 159.123 23.1522C160.396 23.1522 161.457 23.5248 162.412 24.3763L160.767 27.4633C160.131 26.9843 159.441 26.7714 158.646 26.7714C156.948 26.7714 155.516 27.8358 155.516 29.8583V36.8838H151.591V23.4715H155.198Z" fill="black"/>
<path d="M172.543 36.8838V29.6454C172.543 27.8891 171.853 26.7182 170.209 26.7182C168.671 26.7182 167.769 28.1552 167.769 29.6987V36.8838H163.844V23.4183H167.292L167.557 24.9618C168.405 23.4715 169.944 23.1522 171.111 23.1522C172.596 23.1522 174.134 23.6844 175.036 25.6537C176.255 23.8441 177.528 23.099 179.491 23.099C182.302 23.099 184.848 24.536 184.848 29.539V36.8838H180.923V29.5922C180.923 27.8891 180.446 26.7714 178.908 26.7714C177.369 26.7714 176.415 28.102 176.415 29.6454V36.8838H172.543Z" fill="black"/>
<path d="M187.182 30.1777C187.182 26.1327 190.046 23.099 194.502 23.099C198.957 23.099 201.874 26.0795 201.874 30.1777C201.874 34.2227 199.063 37.2032 194.502 37.2032C189.993 37.2032 187.182 34.2759 187.182 30.1777ZM197.896 30.1777C197.896 28.4745 196.888 26.6117 194.502 26.6117C192.168 26.6117 191.107 28.4745 191.107 30.1777C191.107 31.8808 192.115 33.6904 194.502 33.6904C196.888 33.6904 197.896 31.9873 197.896 30.1777Z" fill="black"/>
<path d="M228.978 36.8838H224.258L219.378 30.6034H216.301V36.8838H212.058V17.8298C215.134 17.8298 217.999 17.8298 221.075 17.8298C225.69 17.8298 228.13 20.9168 228.13 24.2699C228.077 26.7714 227.387 28.9535 223.727 30.2841L228.925 36.6177L228.978 36.8838ZM216.354 21.449V26.9843H221.181C223.144 26.9843 223.992 25.494 223.992 24.3231C223.939 22.9925 223.144 21.449 221.128 21.449H216.354Z" fill="black"/>
<path d="M229.933 30.1777C229.933 26.1327 232.797 23.099 237.253 23.099C241.708 23.099 244.625 26.0795 244.625 30.1777C244.625 34.2227 241.814 37.2032 237.253 37.2032C232.691 37.2032 229.933 34.2759 229.933 30.1777ZM240.647 30.1777C240.647 28.4745 239.639 26.6117 237.253 26.6117C234.919 26.6117 233.858 28.4745 233.858 30.1777C233.858 31.8808 234.866 33.6904 237.253 33.6904C239.639 33.6904 240.647 31.9873 240.647 30.1777Z" fill="black"/>
<path d="M261.174 17.8298V36.8838H257.673L257.408 35.1807C256.135 36.7774 254.65 37.1499 252.953 37.1499C249.028 37.1499 246.323 34.3823 246.323 30.1777C246.323 25.8133 249.081 23.1522 253.006 23.1522C254.597 23.1522 256.082 23.6312 257.196 25.0682V17.8298H261.174ZM250.301 30.1777C250.301 32.0937 251.521 33.6372 253.589 33.6372C255.34 33.6372 257.196 32.7324 257.196 30.1777C257.196 27.8891 255.393 26.7181 253.589 26.7181C251.574 26.7181 250.301 28.1552 250.301 30.1777Z" fill="black"/>
<path d="M274.912 23.4183H278.572C278.572 27.8891 278.572 32.4131 278.572 36.8838H275.018L274.806 35.1807C273.904 36.6177 271.995 37.15 270.669 37.15C266.637 37.2032 263.72 34.542 263.72 30.1245C263.72 25.6537 266.797 23.0458 270.775 23.099C272.472 23.099 274.01 23.7377 274.753 24.9618L274.912 23.4183ZM267.645 30.1777C267.645 32.4131 269.236 33.7437 271.199 33.7437C273.374 33.7437 274.753 32.0405 274.753 30.3374C274.753 28.4213 273.533 26.6117 271.199 26.6117C269.236 26.6117 267.645 27.9423 267.645 30.1777Z" fill="black"/>
<path d="M290.294 27.2504C289.286 26.5585 288.331 26.2924 287.111 26.2924C285.838 26.2924 285.202 26.7714 285.202 27.4101C285.202 28.1552 285.891 28.581 287.164 28.581C289.816 28.6874 292.999 29.2197 292.999 32.8921C293.052 35.0742 291.408 37.4161 287.111 37.4161C285.149 37.4161 283.08 37.0435 280.799 35.1275L282.497 32.3598C284.141 33.7436 285.732 34.0098 287.164 34.063C288.331 34.1162 289.18 33.6372 289.18 32.8921C289.18 32.2534 288.702 31.7212 286.899 31.6679C284.406 31.5615 281.277 30.497 281.277 27.3568C281.277 24.3231 284.141 23.0457 287.058 23.0457C289.127 23.0457 290.771 23.578 292.203 24.8021L290.294 27.2504Z" fill="black"/>
<g opacity="0.8">
<path opacity="0.8" d="M79.1372 50.9348V44.1222H83.9639V45.1867H80.2511V47.2624H83.8048V48.2736H80.2511V50.9348H79.1372Z" fill="black"/>
<path opacity="0.8" d="M88.0481 46.0915V48.6462C88.0481 49.4445 88.5255 50.03 89.3741 50.03C90.1698 50.03 90.7002 49.3913 90.7002 48.593V46.0915H91.7079V50.8816H90.8063L90.7532 50.1897C90.2758 50.7219 89.7985 50.988 89.1089 50.988C87.942 50.988 87.0934 50.1364 87.0934 48.6994V46.1447L88.0481 46.0915Z" fill="black"/>
<path opacity="0.8" d="M96.3225 44.1222V50.9348H95.3147V44.1222H96.3225Z" fill="black"/>
<path opacity="0.8" d="M100.99 44.1222V50.9348H99.9823V44.1222H100.99Z" fill="black"/>
<path opacity="0.8" d="M104.544 47.6349H108.098V48.5397H104.544V47.6349Z" fill="black"/>
<path opacity="0.8" d="M114.675 47.3156C114.303 46.943 113.879 46.8898 113.402 46.8898C112.765 46.8898 112.394 47.1027 112.394 47.4753C112.394 47.8478 112.818 48.0075 113.455 48.114C114.356 48.1672 115.47 48.3801 115.47 49.6042C115.47 50.509 114.675 51.1477 113.455 51.1477C112.659 51.1477 111.917 50.988 111.28 50.2429L111.81 49.551C112.235 50.03 112.924 50.2429 113.508 50.2429C113.985 50.2429 114.516 50.0832 114.516 49.6042C114.516 49.1784 114.091 49.0187 113.402 48.9655C112.5 48.8591 111.439 48.593 111.439 47.5285C111.439 46.464 112.553 46.0915 113.402 46.0915C114.144 46.0915 114.728 46.2511 115.258 46.7301L114.675 47.3156Z" fill="black"/>
<path opacity="0.8" d="M120.244 44.7076V46.0914H121.623V46.943H120.191V49.2316C120.191 49.7639 120.403 50.03 120.881 50.03C121.093 50.03 121.305 49.9768 121.517 49.8703L121.782 50.7219C121.464 50.8816 121.146 50.9348 120.827 50.9348C119.767 50.988 119.183 50.3493 119.183 49.2316V46.943H118.281V46.0914H119.183V44.8141L120.244 44.7076Z" fill="black"/>
<path opacity="0.8" d="M128.731 46.0915H129.685C129.685 47.6882 129.685 49.2849 129.685 50.8816H128.731L128.678 50.0832C128.359 50.7219 127.617 50.988 127.033 50.988C125.654 50.988 124.593 50.0832 124.593 48.4333C124.593 46.8366 125.707 45.9318 127.086 45.9318C127.776 45.9318 128.412 46.2511 128.731 46.7834V46.0915ZM125.601 48.4865C125.601 49.4978 126.291 50.0832 127.139 50.0832C129.208 50.0832 129.208 46.8898 127.139 46.8898C126.291 46.943 125.601 47.5285 125.601 48.4865Z" fill="black"/>
<path opacity="0.8" d="M137.323 50.2961C136.793 50.8283 136.209 51.0412 135.52 51.0412C134.141 51.0412 132.974 50.1897 132.974 48.5397C132.974 46.8898 134.088 46.0382 135.52 46.0382C136.156 46.0382 136.74 46.2511 137.27 46.7301L136.634 47.422C136.315 47.1559 135.944 46.9963 135.573 46.9963C134.724 46.9963 134.035 47.6349 134.035 48.5397C134.035 49.551 134.724 50.0832 135.573 50.0832C135.997 50.0832 136.422 49.9768 136.687 49.6574L137.323 50.2961Z" fill="black"/>
<path opacity="0.8" d="M141.46 44.1222V48.1139L143.211 46.1447H144.431V46.1979L142.362 48.3801L144.696 50.8283V50.8816H143.476L141.407 48.6462V50.8816H140.4V44.069L141.46 44.1222Z" fill="black"/>
<path opacity="0.8" d="M157.373 44.1222V48.1139C157.373 49.8703 156.259 51.0412 154.455 51.0412C152.758 51.0412 151.538 49.9768 151.538 48.1672H152.599C152.599 49.3381 153.236 50.03 154.455 50.03C155.622 50.03 156.259 49.2316 156.259 48.1139V45.1334H154.084V44.1222H157.373Z" fill="black"/>
<path opacity="0.8" d="M164.745 46.0915H165.7C165.7 47.6882 165.7 49.2849 165.7 50.8816H164.745L164.692 50.0832C164.374 50.7219 163.632 50.988 163.048 50.988C161.669 50.988 160.608 50.0832 160.608 48.4333C160.608 46.8366 161.722 45.9318 163.101 45.9318C163.791 45.9318 164.427 46.2511 164.745 46.7834V46.0915ZM161.616 48.4865C161.616 49.4978 162.306 50.0832 163.154 50.0832C165.223 50.0832 165.223 46.8898 163.154 46.8898C162.359 46.943 161.616 47.5285 161.616 48.4865Z" fill="black"/>
<path opacity="0.8" d="M173.975 46.0915L171.959 50.9348H170.845L168.83 46.0915H169.943L170.58 47.6349L171.429 49.8703L172.171 47.8478L172.914 46.0915H173.975Z" fill="black"/>
<path opacity="0.8" d="M180.711 46.0915H181.666C181.666 47.6882 181.666 49.2849 181.666 50.8816H180.711L180.658 50.0832C180.34 50.7219 179.597 50.988 179.013 50.988C177.634 50.988 176.574 50.0832 176.574 48.4333C176.574 46.8366 177.687 45.9318 179.067 45.9318C179.756 45.9318 180.393 46.2511 180.711 46.7834V46.0915ZM177.581 48.4865C177.581 49.4978 178.271 50.0832 179.12 50.0832C181.188 50.0832 181.188 46.8898 179.12 46.8898C178.271 46.943 177.581 47.5285 177.581 48.4865Z" fill="black"/>
<path opacity="0.8" d="M189.463 45.6124C189.144 45.1334 188.508 44.8673 187.765 44.8673C186.864 44.8673 186.174 45.2399 186.174 45.8786C186.174 46.5172 186.917 46.7301 187.818 46.8366C189.197 47.0495 190.523 47.422 190.523 48.9655C190.523 50.509 189.144 51.0412 187.712 51.0412C186.439 51.0412 185.431 50.6687 184.795 49.4978L185.591 48.9655C186.068 49.8171 186.917 50.0832 187.712 50.0832C188.508 50.0832 189.409 49.8171 189.409 48.9655C189.409 48.2204 188.614 47.9543 187.659 47.8478C186.333 47.6882 185.007 47.3156 185.007 45.8786C185.007 44.4415 186.386 43.9093 187.606 43.9093C188.561 43.9093 189.569 44.1222 190.152 45.0802L189.463 45.6124Z" fill="black"/>
<path opacity="0.8" d="M197.896 50.2961C197.366 50.8283 196.782 51.0412 196.093 51.0412C194.714 51.0412 193.547 50.1897 193.547 48.5397C193.547 46.8898 194.661 46.0382 196.093 46.0382C196.729 46.0382 197.313 46.2511 197.843 46.7301L197.207 47.422C196.888 47.1559 196.517 46.9963 196.146 46.9963C195.297 46.9963 194.608 47.6349 194.608 48.5397C194.608 49.551 195.297 50.0832 196.146 50.0832C196.57 50.0832 196.994 49.9768 197.26 49.6574L197.896 50.2961Z" fill="black"/>
<path opacity="0.8" d="M201.98 46.0915L202.033 46.7301C202.405 46.0915 202.935 45.985 203.465 45.985C203.943 45.985 204.367 46.1447 204.632 46.4108L204.155 47.2624C203.89 47.0495 203.678 46.9963 203.306 46.9963C202.617 46.9963 202.033 47.422 202.033 48.3268V50.9348H201.026V46.1447L201.98 46.0915Z" fill="black"/>
<path opacity="0.8" d="M208.663 44.7077C208.663 45.5592 207.444 45.5592 207.444 44.7077C207.39 43.9093 208.663 43.9093 208.663 44.7077ZM207.55 46.0915V50.9348H208.557V46.0915H207.55Z" fill="black"/>
<path opacity="0.8" d="M212.111 53.1702V46.1447H213.066L213.119 46.943C213.49 46.3576 214.18 46.0915 214.816 46.0915C216.248 46.0915 217.256 47.1559 217.256 48.593C217.256 50.03 216.301 51.0945 214.816 51.0945C214.233 51.0945 213.49 50.8816 213.119 50.2961V53.2234L212.111 53.1702ZM216.195 48.5397C216.195 47.6349 215.612 46.9963 214.657 46.9963C213.755 46.9963 213.172 47.6882 213.172 48.5397C213.172 49.3913 213.808 50.0832 214.657 50.0832C215.559 50.03 216.195 49.3913 216.195 48.5397Z" fill="black"/>
<path opacity="0.8" d="M221.977 44.7609V46.1447H223.356V46.9962H221.924V49.2849C221.924 49.8171 222.136 50.0832 222.613 50.0832C222.825 50.0832 223.037 50.03 223.25 49.9235L223.515 50.7751C223.197 50.9348 222.878 50.988 222.56 50.988C221.499 51.0412 220.916 50.4025 220.916 49.2849V46.9962H220.014V46.1447H220.916V44.8673L221.977 44.7609Z" fill="black"/>
<path opacity="0.8" d="M236.457 50.9348H231.418C231.418 48.6462 231.418 46.4108 231.418 44.1222H236.404V45.1867H232.532V47.0495H236.298V48.0607H232.532V49.8703H236.457V50.9348Z" fill="black"/>
<path opacity="0.8" d="M243.458 50.9348V48.3801C243.458 47.5285 242.981 46.9963 242.185 46.9963C241.39 46.9963 240.859 47.6349 240.859 48.4333V50.9348H239.852V46.1447H240.753L240.806 46.8366C241.284 46.3044 241.814 46.0915 242.398 46.0915C243.564 46.0915 244.466 46.943 244.466 48.3801V50.9348H243.458Z" fill="black"/>
<path opacity="0.8" d="M252.104 45.6656L252.847 46.2511L252.263 46.943C252.635 47.422 252.847 47.8478 252.847 48.4333C252.847 49.2848 252.422 49.9767 251.574 50.2961C252.528 50.6154 252.847 51.3073 252.847 51.8396C252.847 53.1701 251.574 53.8088 250.301 53.8088C248.763 53.8088 247.755 53.0105 247.755 51.6799H248.763C248.709 52.425 249.505 52.8508 250.301 52.8508C251.043 52.8508 251.839 52.5315 251.839 51.8928C251.839 51.2009 251.202 50.8283 250.354 50.8283C248.816 50.8283 247.755 49.9235 247.755 48.4333C247.755 46.8366 249.028 46.0382 250.354 46.0382C250.778 46.0382 251.308 46.1447 251.627 46.3576L252.104 45.6656ZM248.709 48.38C248.709 49.3381 249.452 49.8703 250.301 49.8703C251.202 49.8703 251.839 49.2848 251.839 48.38C251.839 47.422 251.096 46.8898 250.301 46.8898C249.452 46.8898 248.709 47.3688 248.709 48.38Z" fill="black"/>
<path opacity="0.8" d="M257.302 44.7077C257.302 45.5592 256.082 45.5592 256.082 44.7077C256.082 43.9093 257.302 43.9093 257.302 44.7077ZM256.188 46.0915V50.9348H257.196V46.0915H256.188Z" fill="black"/>
<path opacity="0.8" d="M264.41 50.9348V48.3801C264.41 47.5285 263.932 46.9963 263.137 46.9963C262.341 46.9963 261.811 47.6349 261.811 48.4333V50.9348H260.803V46.1447H261.705L261.758 46.8366C262.235 46.3044 262.765 46.0915 263.349 46.0915C264.516 46.0915 265.417 46.943 265.417 48.3801V50.9348H264.41Z" fill="black"/>
<path opacity="0.8" d="M269.661 48.9123C269.767 49.6574 270.35 50.1364 271.199 50.1364C271.676 50.1364 272.313 49.9768 272.578 49.6042L273.214 50.2429C272.737 50.7751 271.888 51.0412 271.146 51.0412C269.555 51.0412 268.547 50.03 268.547 48.4865C268.547 47.0495 269.555 45.985 271.04 45.985C272.578 45.985 273.639 46.943 273.427 48.8591L269.661 48.9123ZM272.578 48.0607C272.525 47.3156 271.941 46.8898 271.146 46.8898C270.403 46.8898 269.82 47.2624 269.661 48.0607H272.578Z" fill="black"/>
<path opacity="0.8" d="M277.564 48.9123C277.67 49.6574 278.253 50.1364 279.102 50.1364C279.579 50.1364 280.216 49.9768 280.481 49.6042L281.118 50.2429C280.64 50.7751 279.792 51.0412 279.049 51.0412C277.458 51.0412 276.45 50.03 276.45 48.4865C276.45 47.0495 277.458 45.985 278.943 45.985C280.481 45.985 281.542 46.943 281.33 48.8591L277.564 48.9123ZM280.481 48.0607C280.428 47.3156 279.845 46.8898 279.049 46.8898C278.306 46.8898 277.723 47.2624 277.564 48.0607H280.481Z" fill="black"/>
<path opacity="0.8" d="M285.573 46.1447L285.626 46.7834C285.997 46.1447 286.528 46.0382 287.058 46.0382C287.535 46.0382 287.96 46.1979 288.225 46.464L287.748 47.3156C287.482 47.1027 287.27 47.0495 286.899 47.0495C286.209 47.0495 285.626 47.4753 285.626 48.3801V50.988H284.618V46.1979L285.573 46.1447Z" fill="black"/>
</g>
<path d="M210.141 29.1569L207.215 26.2214L204.29 29.1569L207.215 32.0924L210.141 29.1569Z" fill="#F7DF1D"/>
<path d="M35.4845 0L0 35.2339L35.6436 71L57.9208 48.9123L47.79 47.1559L35.6966 59.0247L11.8282 35.2339L41.319 5.48201L35.4845 0Z" fill="#F7DF1D"/>
<path d="M60.6259 45.7721L71.2871 35.6065L53.6775 17.6169L29.3317 42.0997L34.4236 47.1559L53.6775 27.8358L60.3607 34.542L50.2298 44.2819L60.6259 45.7721Z" fill="black"/>
<path d="M35.6436 65.4115L5.41016 35.0742L40.046 0.745117L40.9477 1.59669L7.16051 35.0742L35.6436 63.7084L52.2984 47.2091L53.7836 47.422L35.6436 65.4115Z" fill="black"/>
<path d="M55.1097 46.1447L53.5715 45.985L64.551 34.9678L53.4123 23.578L30.8699 46.1979L30.0212 45.3463L53.4654 21.8216L66.2483 34.9678L55.1097 46.1447Z" fill="#F7DF1D"/>
</svg>
