<svg width="293" height="71" viewBox="0 0 293 71" fill="none" xmlns="http://www.w3.org/2000/svg">
<path d="M53.5464 47.7859L35.6271 65.4161L4.86305 34.7868L37.9529 2.26299L35.4685 0L0 34.9974L35.6271 70.4684L57.8809 48.5226L53.5464 47.7859Z" fill="#F7DF1D"/>
<path d="M11.8405 34.9447L41.336 5.42063L39.3802 3.63129L7.71753 34.7868L35.6272 62.6268L51.1678 47.3648L47.732 46.7859L35.6801 58.5745L11.8405 34.9447Z" fill="#F7DF1D"/>
<path d="M54.128 44.4703L63.9598 34.6816L53.3879 23.9456L32.4028 44.8387L34.4115 46.7859L53.7051 27.5769L60.3654 34.2606L50.2164 43.944L54.128 44.4703Z" fill="white"/>
<path d="M53.705 17.4724L29.3369 41.7337L31.0284 43.4178L53.4407 21.1037L66.8141 34.6816L56.6123 44.8387L60.6296 45.4176L71.2543 35.3131L53.705 17.4724Z" fill="white"/>
<path d="M91.975 22.6825C90.8121 21.5773 89.0678 20.9984 87.5348 20.9984C83.9404 20.9984 81.5617 23.0509 81.5617 27.1559C81.5617 29.8399 83.0418 33.208 87.5348 33.208C88.8563 33.208 90.1249 32.9975 91.5521 31.8923V28.8926H87.0062V25.3665H95.1994V33.5764C93.5608 35.892 90.9707 37.1025 87.482 37.1025C80.1874 37.1025 77.4387 32.0502 77.4387 27.1559C77.4387 21.8405 80.5574 17.1566 87.5348 17.1566C90.1249 17.1566 92.4507 17.8408 94.618 20.0511L91.975 22.6825Z" fill="white"/>
<path d="M101.754 23.2614V30.3135C101.754 32.366 102.653 33.4185 104.503 33.4185C106.3 33.4712 107.516 31.8923 107.516 30.1556V23.2614H111.374V36.5762H107.833L107.674 34.8395C106.458 36.4183 104.978 36.892 103.34 36.8393C100.327 36.8393 97.7896 35.471 97.7896 30.3135V23.2614H101.754Z" fill="white"/>
<path d="M118.828 19.7354C118.828 22.6299 114.387 22.6299 114.387 19.7354C114.387 16.8409 118.828 16.8409 118.828 19.7354ZM114.652 23.2614V36.5762H118.563V23.2614H114.652Z" fill="white"/>
<path d="M125.805 17.7355V36.5762H121.946V17.7355H125.805Z" fill="white"/>
<path d="M133.099 17.7355V36.5762H129.241V17.7355H133.099Z" fill="white"/>
<path d="M139.654 31.2082C139.865 32.5239 141.081 33.5764 143.301 33.5764C144.358 33.5764 145.838 33.3133 146.79 32.5239L148.957 34.9447C147.53 36.3657 145.204 36.8919 143.195 36.8919C138.332 36.8919 135.689 34.0501 135.689 29.7872C135.689 25.7349 138.438 22.893 142.773 22.893C147.318 22.893 150.279 25.7349 149.433 31.1555L139.654 31.2082ZM145.944 28.3663C145.838 26.8927 144.358 26.2612 142.773 26.2612C141.187 26.2612 140.024 27.0506 139.654 28.3663H145.944Z" fill="white"/>
<path d="M155.67 23.3141L155.988 24.7876C156.886 23.5246 158.049 22.9983 159.582 22.9983C160.851 22.9983 161.908 23.3667 162.859 24.2087L161.221 27.2611C160.586 26.7875 159.899 26.577 159.106 26.577C157.415 26.577 155.988 27.6295 155.988 29.6294V36.5762H152.076V23.3141H155.67Z" fill="white"/>
<path d="M172.955 36.5762V29.4188C172.955 27.6821 172.268 26.5243 170.629 26.5243C169.097 26.5243 168.198 27.9453 168.198 29.4715V36.5762H164.286V23.2614H167.722L167.987 24.7876C168.832 23.314 170.365 22.9983 171.528 22.9983C173.008 22.9983 174.541 23.5246 175.44 25.4718C176.655 23.6824 177.924 22.9456 179.88 22.9456C182.681 22.9456 185.219 24.3666 185.219 29.3136V36.5762H181.307V29.3662C181.307 27.6821 180.831 26.577 179.298 26.577C177.765 26.577 176.814 27.8926 176.814 29.4188V36.5762H172.955Z" fill="white"/>
<path d="M187.544 29.9451C187.544 25.9454 190.399 22.9456 194.839 22.9456C199.279 22.9456 202.186 25.8928 202.186 29.9451C202.186 33.9448 199.385 36.892 194.839 36.892C190.346 36.892 187.544 33.9974 187.544 29.9451ZM198.222 29.9451C198.222 28.261 197.218 26.4191 194.839 26.4191C192.513 26.4191 191.456 28.261 191.456 29.9451C191.456 31.6292 192.46 33.4185 194.839 33.4185C197.218 33.4185 198.222 31.7345 198.222 29.9451Z" fill="white"/>
<path d="M229.198 36.5762H224.493L219.63 30.3662H216.564V36.5762H212.335V17.7355C215.401 17.7355 218.256 17.7355 221.322 17.7355C225.92 17.7355 228.352 20.7879 228.352 24.1035C228.299 26.577 227.612 28.7347 223.964 30.0504L229.145 36.3131L229.198 36.5762ZM216.617 21.3668V26.8401H221.427C223.383 26.8401 224.229 25.3665 224.229 24.2087C224.176 22.893 223.383 21.3668 221.374 21.3668H216.617Z" fill="white"/>
<path d="M230.096 29.9451C230.096 25.9454 232.951 22.9456 237.391 22.9456C241.831 22.9456 244.738 25.8928 244.738 29.9451C244.738 33.9448 241.937 36.892 237.391 36.892C232.898 36.892 230.096 33.9974 230.096 29.9451ZM240.827 29.9451C240.827 28.261 239.822 26.4191 237.444 26.4191C235.118 26.4191 234.061 28.261 234.061 29.9451C234.061 31.6292 235.065 33.4185 237.444 33.4185C239.822 33.4185 240.827 31.7345 240.827 29.9451Z" fill="white"/>
<path d="M261.283 17.7355V36.5762H257.795L257.53 34.8921C256.262 36.471 254.782 36.8393 253.09 36.8393C249.178 36.8393 246.483 34.1027 246.483 29.9451C246.483 25.6297 249.231 22.9983 253.143 22.9983C254.729 22.9983 256.209 23.4719 257.319 24.8929V17.7355H261.283ZM250.447 29.9451C250.447 31.8397 251.663 33.3659 253.724 33.3659C255.469 33.3659 257.319 32.4713 257.319 29.9451C257.319 27.6821 255.522 26.5243 253.724 26.5243C251.716 26.5243 250.447 27.9453 250.447 29.9451Z" fill="white"/>
<path d="M274.921 23.2614H278.568C278.568 27.6821 278.568 32.1555 278.568 36.5762H275.027L274.815 34.8921C273.917 36.3131 272.014 36.8393 270.692 36.8393C266.675 36.892 263.768 34.2606 263.768 29.8925C263.768 25.4718 266.833 22.893 270.798 22.9456C272.489 22.9456 274.022 23.5772 274.762 24.7876L274.921 23.2614ZM267.732 29.9451C267.732 32.1555 269.318 33.4712 271.274 33.4712C273.441 33.4712 274.815 31.7871 274.815 30.103C274.815 28.2084 273.599 26.4191 271.274 26.4191C269.318 26.4191 267.732 27.7348 267.732 29.9451Z" fill="white"/>
<path d="M290.303 27.0506C289.299 26.3664 288.347 26.1033 287.131 26.1033C285.863 26.1033 285.228 26.5769 285.228 27.2085C285.228 27.9453 285.916 28.3663 287.184 28.3663C289.827 28.4715 292.999 28.9978 292.999 32.6291C293.052 34.7868 291.413 37.1025 287.131 37.1025C285.176 37.1025 283.114 36.7341 280.841 34.8395L282.533 32.1028C284.171 33.4712 285.757 33.7343 287.184 33.7869C288.347 33.8395 289.193 33.3659 289.193 32.6291C289.193 31.9976 288.717 31.4713 286.92 31.4187C284.435 31.3134 281.317 30.2609 281.317 27.1558C281.317 24.1561 284.171 22.893 287.078 22.893C289.14 22.893 290.779 23.4193 292.206 24.6297L290.303 27.0506Z" fill="white"/>
<path d="M79.8701 50.4699V43.7336H84.6803V44.7861H80.9802V46.8386H84.5217V47.8385H80.9802V50.4699H79.8701Z" fill="white"/>
<path d="M88.7505 45.6808V48.2069C88.7505 48.9963 89.2263 49.5752 90.072 49.5752C90.8649 49.5752 91.3935 48.9437 91.3935 48.1543V45.6808H92.3978V50.4172H91.4992L91.4464 49.7331C90.9706 50.2594 90.4949 50.5225 89.8077 50.5225C88.6448 50.5225 87.7991 49.6804 87.7991 48.2595V45.7334L88.7505 45.6808Z" fill="white"/>
<path d="M96.9965 43.7336V50.4699H95.9922V43.7336H96.9965Z" fill="white"/>
<path d="M101.648 43.7336V50.4699H100.644V43.7336H101.648Z" fill="white"/>
<path d="M105.19 47.207H108.731V48.1016H105.19V47.207Z" fill="white"/>
<path d="M115.286 46.8912C114.916 46.5228 114.493 46.4702 114.017 46.4702C113.383 46.4702 113.013 46.6807 113.013 47.0491C113.013 47.4175 113.436 47.5753 114.07 47.6806C114.969 47.7332 116.079 47.9437 116.079 49.1542C116.079 50.0488 115.286 50.6804 114.07 50.6804C113.277 50.6804 112.537 50.5225 111.903 49.7857L112.431 49.1015C112.854 49.5752 113.541 49.7857 114.123 49.7857C114.599 49.7857 115.127 49.6278 115.127 49.1542C115.127 48.7332 114.704 48.5753 114.017 48.5226C113.119 48.4174 112.061 48.1543 112.061 47.1017C112.061 46.0491 113.171 45.6808 114.017 45.6808C114.757 45.6808 115.339 45.8386 115.867 46.3123L115.286 46.8912Z" fill="white"/>
<path d="M120.836 44.3651V45.7334H122.211V46.5754H120.783V48.8384C120.783 49.3647 120.995 49.6278 121.47 49.6278C121.682 49.6278 121.893 49.5752 122.105 49.4699L122.369 50.312C122.052 50.4699 121.735 50.5225 121.418 50.5225C120.36 50.5751 119.779 49.9436 119.779 48.8384V46.5754H118.88V45.7334H119.779V44.4703L120.836 44.3651Z" fill="white"/>
<path d="M129.293 45.7334H130.245C130.245 47.3122 130.245 48.891 130.245 50.4699H129.293L129.241 49.6805C128.923 50.312 128.183 50.5751 127.602 50.5751C126.228 50.5751 125.17 49.6805 125.17 48.049C125.17 46.4702 126.28 45.5755 127.655 45.5755C128.342 45.5755 128.976 45.8913 129.293 46.4175V45.7334ZM126.175 48.049C126.175 49.0489 126.862 49.6278 127.708 49.6278C129.769 49.6278 129.769 46.4702 127.708 46.4702C126.862 46.5228 126.175 47.1017 126.175 48.049Z" fill="white"/>
<path d="M137.857 49.8384C137.328 50.3646 136.747 50.5751 136.059 50.5751C134.685 50.5751 133.522 49.7331 133.522 48.1016C133.522 46.4702 134.632 45.6281 136.059 45.6281C136.694 45.6281 137.275 45.8387 137.804 46.3123L137.17 46.9965C136.852 46.7333 136.482 46.5754 136.112 46.5754C135.267 46.5754 134.579 47.207 134.579 48.1016C134.579 49.1016 135.267 49.6278 136.112 49.6278C136.535 49.6278 136.958 49.5226 137.222 49.2068L137.857 49.8384Z" fill="white"/>
<path d="M141.98 43.7335V47.6806L143.724 45.7334H144.94V45.786L142.878 47.9437L145.204 50.3646V50.4172H143.988L141.927 48.2069V50.4172H140.923V43.6809L141.98 43.7335Z" fill="white"/>
<path d="M157.837 43.7336V47.6806C157.837 49.4173 156.727 50.5751 154.93 50.5751C153.239 50.5751 152.023 49.5226 152.023 47.7332H153.08C153.08 48.8911 153.714 49.5752 154.93 49.5752C156.093 49.5752 156.727 48.7858 156.727 47.6806V44.7335H154.56V43.7336H157.837Z" fill="white"/>
<path d="M165.185 45.7334H166.136C166.136 47.3122 166.136 48.891 166.136 50.4699H165.185L165.132 49.6805C164.815 50.312 164.075 50.5751 163.494 50.5751C162.119 50.5751 161.062 49.6805 161.062 48.049C161.062 46.4702 162.172 45.5755 163.546 45.5755C164.234 45.5755 164.868 45.8913 165.185 46.4175V45.7334ZM162.066 48.1016C162.066 49.1016 162.753 49.6805 163.599 49.6805C165.661 49.6805 165.661 46.5228 163.599 46.5228C162.753 46.5228 162.066 47.1017 162.066 48.1016Z" fill="white"/>
<path d="M174.382 45.6808L172.374 50.4699H171.264L169.255 45.6808H170.365L170.999 47.207L171.845 49.4173L172.585 47.4175L173.325 45.6808H174.382Z" fill="white"/>
<path d="M181.096 45.7334H182.047C182.047 47.3122 182.047 48.891 182.047 50.4699H181.096L181.043 49.6805C180.726 50.312 179.986 50.5751 179.404 50.5751C178.03 50.5751 176.973 49.6805 176.973 48.049C176.973 46.4702 178.083 45.5755 179.457 45.5755C180.144 45.5755 180.779 45.8913 181.096 46.4175V45.7334ZM177.977 48.1016C177.977 49.1016 178.664 49.6805 179.51 49.6805C181.571 49.6805 181.571 46.5228 179.51 46.5228C178.664 46.5228 177.977 47.1017 177.977 48.1016Z" fill="white"/>
<path d="M189.817 45.2071C189.5 44.7335 188.866 44.4703 188.126 44.4703C187.227 44.4703 186.54 44.8387 186.54 45.4703C186.54 46.1018 187.28 46.3123 188.179 46.4176C189.553 46.6281 190.875 46.9965 190.875 48.5227C190.875 50.0489 189.5 50.5751 188.073 50.5751C186.804 50.5751 185.8 50.2067 185.166 49.0489L185.959 48.5227C186.434 49.3647 187.28 49.6278 188.073 49.6278C188.866 49.6278 189.765 49.3647 189.765 48.5227C189.765 47.7859 188.972 47.5227 188.02 47.4175C186.699 47.2596 185.377 46.8912 185.377 45.4703C185.377 44.0493 186.752 43.523 187.967 43.523C188.919 43.523 189.923 43.7336 190.505 44.6809L189.817 45.2071Z" fill="white"/>
<path d="M198.222 49.8384C197.693 50.3646 197.112 50.5751 196.425 50.5751C195.05 50.5751 193.887 49.7331 193.887 48.1016C193.887 46.4702 194.998 45.6281 196.425 45.6281C197.059 45.6281 197.64 45.8387 198.169 46.3123L197.535 46.9965C197.218 46.7333 196.848 46.5754 196.478 46.5754C195.632 46.5754 194.945 47.207 194.945 48.1016C194.945 49.1016 195.632 49.6278 196.478 49.6278C196.9 49.6278 197.323 49.5226 197.588 49.2068L198.222 49.8384Z" fill="white"/>
<path d="M202.239 45.7334L202.292 46.3649C202.662 45.7334 203.191 45.6281 203.719 45.6281C204.195 45.6281 204.618 45.786 204.882 46.0492L204.407 46.8912C204.142 46.6807 203.931 46.6281 203.561 46.6281C202.874 46.6281 202.292 47.0491 202.292 47.9438V50.5225H201.288V45.786L202.239 45.7334Z" fill="white"/>
<path d="M208.952 44.3125C208.952 45.1545 207.737 45.1545 207.737 44.3125C207.684 43.523 208.952 43.523 208.952 44.3125ZM207.79 45.6808V50.4699H208.794V45.6808H207.79Z" fill="white"/>
<path d="M212.388 52.6802V45.7334H213.34L213.393 46.5228C213.763 45.9439 214.45 45.6808 215.084 45.6808C216.511 45.6808 217.516 46.7333 217.516 48.1543C217.516 49.5752 216.564 50.6277 215.084 50.6277C214.503 50.6277 213.763 50.4172 213.393 49.8383V52.7328L212.388 52.6802ZM216.458 48.1016C216.458 47.207 215.877 46.5754 214.925 46.5754C214.027 46.5754 213.445 47.2596 213.445 48.1016C213.445 48.9437 214.08 49.6278 214.925 49.6278C215.824 49.5752 216.458 48.9963 216.458 48.1016Z" fill="white"/>
<path d="M222.22 44.3651V45.7334H223.594V46.5754H222.167V48.8384C222.167 49.3647 222.379 49.6278 222.854 49.6278C223.066 49.6278 223.277 49.5752 223.489 49.4699L223.753 50.312C223.436 50.4699 223.119 50.5225 222.801 50.5225C221.744 50.5751 221.163 49.9436 221.163 48.8384V46.5754H220.264V45.7334H221.163V44.4703L222.22 44.3651Z" fill="white"/>
<path d="M236.651 50.4699H231.629C231.629 48.2069 231.629 45.9965 231.629 43.7336H236.598V44.7861H232.739V46.6281H236.492V47.628H232.739V49.4173H236.651V50.4699Z" fill="white"/>
<path d="M243.628 50.4699V47.9437C243.628 47.1017 243.152 46.5754 242.359 46.5754C241.567 46.5754 241.038 47.207 241.038 47.9964V50.4699H240.034V45.7334H240.932L240.985 46.4175C241.461 45.8913 241.989 45.6808 242.571 45.6808C243.734 45.6808 244.632 46.5228 244.632 47.9437V50.4699H243.628Z" fill="white"/>
<path d="M252.244 45.2597L252.984 45.8386L252.403 46.5228C252.773 46.9964 252.984 47.4175 252.984 47.9964C252.984 48.8384 252.561 49.5226 251.716 49.8383C252.667 50.1541 252.984 50.8383 252.984 51.3645C252.984 52.6802 251.716 53.3118 250.447 53.3118C248.914 53.3118 247.91 52.5223 247.91 51.2067H248.914C248.861 51.9434 249.654 52.3645 250.447 52.3645C251.187 52.3645 251.98 52.0487 251.98 51.4172C251.98 50.733 251.346 50.3646 250.5 50.3646C248.967 50.3646 247.91 49.4699 247.91 47.9964C247.91 46.4175 249.178 45.6281 250.5 45.6281C250.923 45.6281 251.451 45.7334 251.768 45.9439L252.244 45.2597ZM248.861 47.9437C248.861 48.891 249.601 49.4173 250.447 49.4173C251.346 49.4173 251.98 48.8384 251.98 47.9437C251.98 46.9964 251.24 46.4702 250.447 46.4702C249.601 46.4702 248.861 46.9438 248.861 47.9437Z" fill="white"/>
<path d="M257.424 44.3125C257.424 45.1545 256.209 45.1545 256.209 44.3125C256.156 43.523 257.424 43.523 257.424 44.3125ZM256.314 45.6808V50.4699H257.319V45.6808H256.314Z" fill="white"/>
<path d="M264.455 50.4699V47.9437C264.455 47.1017 263.979 46.5754 263.186 46.5754C262.393 46.5754 261.864 47.207 261.864 47.9964V50.4699H260.86V45.7334H261.759L261.812 46.4175C262.287 45.8913 262.816 45.6808 263.397 45.6808C264.56 45.6808 265.459 46.5228 265.459 47.9437V50.4699H264.455Z" fill="white"/>
<path d="M269.74 48.47C269.846 49.2068 270.428 49.6805 271.273 49.6805C271.749 49.6805 272.383 49.5226 272.648 49.1542L273.282 49.7857C272.806 50.312 271.96 50.5751 271.22 50.5751C269.635 50.5751 268.63 49.5752 268.63 48.049C268.63 46.6281 269.635 45.5755 271.115 45.5755C272.648 45.5755 273.705 46.5228 273.493 48.4174L269.74 48.47ZM272.648 47.628C272.595 46.8912 272.013 46.4702 271.22 46.4702C270.48 46.4702 269.899 46.8386 269.74 47.628H272.648Z" fill="white"/>
<path d="M277.564 48.47C277.669 49.2068 278.251 49.6805 279.097 49.6805C279.572 49.6805 280.207 49.5226 280.471 49.1542L281.105 49.7857C280.63 50.312 279.784 50.5751 279.044 50.5751C277.458 50.5751 276.454 49.5752 276.454 48.049C276.454 46.6281 277.458 45.5755 278.938 45.5755C280.471 45.5755 281.528 46.5228 281.317 48.4174L277.564 48.47ZM280.471 47.628C280.418 46.8912 279.837 46.4702 279.044 46.4702C278.304 46.4702 277.722 46.8386 277.564 47.628H280.471Z" fill="white"/>
<path d="M285.598 45.7334L285.651 46.3649C286.021 45.7334 286.55 45.6281 287.078 45.6281C287.554 45.6281 287.977 45.786 288.241 46.0492L287.765 46.8912C287.501 46.6807 287.29 46.6281 286.92 46.6281C286.232 46.6281 285.651 47.0491 285.651 47.9438V50.5225H284.647V45.786L285.598 45.7334Z" fill="white"/>
<path d="M210.424 28.9456L207.508 26.043L204.593 28.9456L207.508 31.8483L210.424 28.9456Z" fill="#F7DF1D"/>
</svg>
