<svg width="601" height="240" viewBox="0 0 601 240" fill="none" xmlns="http://www.w3.org/2000/svg">
<path d="M79.9 0.199951V99.7999H40V0.199951H0.0999756V239.3H40V139.7H79.9V239.3H119.8V0.199951H79.9ZM240.2 0.199951V189.8C240.2 195.1 235.9 199.9 230.1 199.9H209.9C204.6 199.9 199.8 195.6 199.8 189.8V0.199951H160.3V199.9C160.3 222 178.1 239.8 200.2 239.8H240.1C262.2 239.8 280 222 280 199.9V0.199951H240.2ZM600.1 40.1V0.199951H480.3V239.3H600.1V199.4H520.2V139.7H560.1V99.7999H520.2V40.1H600.1M439.8 60.2999V40.1C439.8 18 422 0.199951 399.9 0.199951H360C337.9 0.199951 320.1 18 320.1 40.1V199.8C320.1 221.9 337.9 239.7 360 239.7H399.9C422 239.7 439.8 221.9 439.8 199.8V100.2H380.1V140.1H400.3V189.7C400.3 195 396 199.8 390.2 199.8H370C364.7 199.8 359.9 195.5 359.9 189.7V50.2C359.9 44.9 364.2 40.1 370 40.1H390.2C395.5 40.1 400.3 44.4 400.3 50.2V60.2999H439.8Z" fill="black"/>
</svg>
