<svg width="399" height="82" viewBox="0 0 399 82" fill="none" xmlns="http://www.w3.org/2000/svg">
<path d="M93.1011 68.223L86.8741 50.314C86.1561 50.57 85.4384 50.813 84.7211 51.043C84.0038 51.273 83.3637 51.491 82.8011 51.697C82.1344 51.9024 81.4937 52.133 80.8791 52.389C80.252 52.548 79.6549 52.8077 79.1111 53.158C78.6281 53.4855 78.2001 53.8875 77.8431 54.349C77.4402 54.8918 77.2365 55.5567 77.2661 56.232V68.223H70.8091V12.493H77.2661V47.162C77.7261 47.007 78.3031 46.804 78.9951 46.547C79.6871 46.29 80.4171 46.021 81.1861 45.74C81.9551 45.459 82.7231 45.191 83.4921 44.932L85.5671 44.241L86.4901 43.934C86.7967 43.832 87.0784 43.729 87.3351 43.625C87.8683 43.4972 88.3691 43.2601 88.806 42.9288C89.2429 42.5974 89.6062 42.179 89.8731 41.7C90.2031 41.0024 90.3862 40.2444 90.4111 39.473V28.1H96.9441V40.551C96.963 42.0094 96.6046 43.4479 95.9038 44.7269C95.2029 46.0059 94.1834 47.0821 92.9441 47.851L100.018 68.223H93.1011Z" fill="black"/>
<path d="M134.456 58.3091V59.5381C134.431 60.3662 134.328 61.1901 134.149 61.9991C133.882 63.1443 133.326 64.2022 132.535 65.0721C131.45 66.246 130.108 67.1536 128.614 67.7241C126.301 68.5625 123.846 68.9413 121.388 68.8391C118.93 68.9414 116.476 68.5626 114.163 67.7241C112.669 67.1547 111.327 66.2469 110.243 65.0721C109.445 64.1918 108.889 63.12 108.628 61.9611C108.454 61.1642 108.351 60.3533 108.321 59.5381V36.7841C108.351 35.9699 108.454 35.16 108.628 34.3641C108.889 33.2041 109.445 32.1313 110.243 31.2501C111.328 30.0762 112.67 29.1683 114.163 28.5971C116.476 27.7599 118.93 27.3815 121.388 27.4831C123.848 27.3819 126.304 27.7614 128.618 28.6001C130.111 29.1723 131.453 30.08 132.539 31.2531C133.33 32.1236 133.886 33.1817 134.153 34.3271C134.332 35.1356 134.435 35.9593 134.46 36.7871L134.456 58.3091ZM127.918 57.5401V37.9401C127.911 37.4317 127.833 36.9267 127.686 36.4401C127.509 35.862 127.177 35.3433 126.726 34.9401C126.13 34.4148 125.439 34.0096 124.689 33.7471C123.549 33.3736 122.352 33.2044 121.153 33.2471C120.017 33.2086 118.883 33.378 117.808 33.7471C117.074 34.0116 116.406 34.4311 115.849 34.9771C115.417 35.4128 115.112 35.9575 114.965 36.5531C114.848 37.0319 114.783 37.5222 114.773 38.0151V58.3091C114.783 58.8006 114.848 59.2896 114.965 59.7671C115.111 60.3634 115.416 60.9087 115.849 61.3441C116.405 61.892 117.073 62.3118 117.808 62.5741C118.883 62.9442 120.017 63.1136 121.153 63.0741C122.352 63.1179 123.549 62.9486 124.689 62.5741C125.439 62.313 126.131 61.9081 126.726 61.3821C127.176 60.9786 127.508 60.46 127.686 59.8821C127.833 59.3953 127.911 58.8904 127.918 58.3821V57.5401Z" fill="black"/>
<path d="M188.573 68.2231H182.038V38.0151C182.032 37.5094 181.968 37.0061 181.847 36.5151C181.696 35.94 181.405 35.4113 181 34.9761C180.462 34.4246 179.805 34.0038 179.079 33.7461C177.978 33.3735 176.819 33.2041 175.657 33.2461C174.47 33.2085 173.286 33.3776 172.157 33.7461C171.393 34.0023 170.687 34.4078 170.081 34.9391C169.63 35.342 169.297 35.8607 169.119 36.4391C168.978 36.9 168.9 37.3781 168.888 37.8601V68.2231H162.355V38.0151C162.349 37.5094 162.285 37.006 162.163 36.5151C162.014 35.9393 161.723 35.4102 161.317 34.9761C160.779 34.4243 160.122 34.0035 159.396 33.7461C158.295 33.3735 157.136 33.2041 155.975 33.2461C154.788 33.2089 153.604 33.378 152.475 33.7461C151.711 34.0028 151.006 34.4083 150.4 34.9391C149.949 35.342 149.616 35.8607 149.438 36.4391C149.297 36.9 149.22 37.3781 149.208 37.8601V68.2231H142.758V36.7841C142.783 35.9563 142.885 35.1327 143.064 34.3241C143.332 33.1785 143.887 32.1203 144.679 31.2501C145.765 30.0764 147.106 29.1685 148.599 28.5971C150.912 27.7598 153.367 27.3814 155.825 27.4831C157.861 27.4289 159.895 27.6752 161.859 28.2141C163.218 28.602 164.503 29.2101 165.665 30.0141C166.825 29.2099 168.108 28.6018 169.465 28.2141C171.43 27.6752 173.463 27.4289 175.5 27.4831C177.959 27.3817 180.413 27.7601 182.727 28.5971C184.219 29.169 185.56 30.0768 186.645 31.2501C187.443 32.1315 188 33.2042 188.261 34.3641C188.435 35.1601 188.538 35.9699 188.569 36.7841V68.2231H188.573Z" fill="black"/>
<path d="M210.018 27.4831C212.476 27.3815 214.93 27.7599 217.243 28.5971C218.736 29.1696 220.078 30.0772 221.165 31.2501C221.961 32.1324 222.517 33.2048 222.778 34.3641C222.952 35.1601 223.055 35.9699 223.086 36.7841V40.4741C223.065 41.4674 222.896 42.4521 222.586 43.3961C222.09 44.7184 221.286 45.9035 220.24 46.8531C219.707 47.4478 219.052 47.9203 218.319 48.2381C217.695 48.5112 217.054 48.7424 216.399 48.9301C215.726 49.1351 215.026 49.2386 214.322 49.2371H208.479C207.823 49.2358 207.173 49.3641 206.566 49.6147C205.96 49.8652 205.409 50.233 204.945 50.6971C204.447 51.156 204.053 51.7154 203.787 52.3382C203.522 52.9611 203.392 53.6332 203.406 54.3101V57.7701C203.354 58.7899 203.594 59.8033 204.099 60.6911C204.288 61.0274 204.52 61.3374 204.79 61.6131C205.125 61.9186 205.518 62.1536 205.945 62.3041C206.448 62.5429 206.976 62.7237 207.519 62.8431C208.341 63.0151 209.18 63.0926 210.019 63.0741C211.086 63.1122 212.153 62.9692 213.172 62.6511C213.734 62.4654 214.274 62.2207 214.784 61.9211C215.417 61.4548 215.898 60.8134 216.17 60.0761C216.429 59.3351 216.559 58.555 216.553 57.7701H223.087V59.6151C223.098 60.9474 222.795 62.2636 222.203 63.4571C221.563 64.6934 220.625 65.7506 219.474 66.5331C218.363 67.2574 217.144 67.8024 215.863 68.1481C213.958 68.6542 211.99 68.8868 210.019 68.8391C208.497 68.8606 206.976 68.7185 205.484 68.4151C204.334 68.1772 203.213 67.8165 202.14 67.3391C201.285 66.964 200.494 66.4579 199.795 65.8391C199.228 65.327 198.713 64.7603 198.258 64.1471C197.33 62.7941 196.87 61.174 196.951 59.5351V36.7841C196.976 35.9561 197.079 35.1324 197.26 34.3241C197.527 33.1783 198.082 32.12 198.874 31.2501C199.96 30.0764 201.302 29.1686 202.795 28.5971C205.108 27.7601 207.561 27.3817 210.018 27.4831V27.4831ZM216.552 38.7051V38.0151C216.547 37.5092 216.482 37.0057 216.359 36.5151C216.206 35.9329 215.901 35.4019 215.476 34.9761C214.919 34.4297 214.25 34.0101 213.516 33.7461C212.441 33.3768 211.308 33.2073 210.172 33.2461C208.985 33.2086 207.801 33.3778 206.672 33.7461C205.908 34.0032 205.203 34.4086 204.596 34.9391C204.146 35.3426 203.814 35.8611 203.636 36.4391C203.494 36.8999 203.416 37.378 203.404 37.8601V45.8601C203.495 45.4177 203.741 45.0222 204.097 44.7451C204.466 44.4576 204.882 44.2363 205.327 44.0911C205.776 43.9411 206.24 43.8382 206.71 43.7841C207.067 43.74 207.426 43.7143 207.786 43.7071H212.167C212.738 43.7123 213.305 43.6026 213.833 43.3846C214.361 43.1666 214.84 42.8447 215.241 42.4381C215.659 42.0513 215.991 41.5814 216.216 41.0585C216.442 40.5356 216.555 39.9714 216.549 39.4021V38.7091L216.552 38.7051Z" fill="black"/>
<path d="M246.991 62.459V68.223C244.533 68.326 242.079 67.9476 239.766 67.109C238.265 66.5321 236.912 65.6262 235.806 64.458C234.989 63.5852 234.419 62.5103 234.155 61.344C233.98 60.5476 233.877 59.737 233.848 58.922V32.941H228.928V27.483H233.848V17.26H240.38V27.483H246.991V32.941H240.38V57.616C240.386 58.1218 240.451 58.6252 240.573 59.116C240.729 59.7081 241.034 60.2507 241.457 60.693C242.004 61.2614 242.675 61.696 243.417 61.963C244.492 62.3318 245.625 62.5013 246.76 62.463L246.991 62.459Z" fill="black"/>
<path d="M271.397 34.8251C270.498 33.7737 268.769 33.2484 266.208 33.2491C265.129 33.2209 264.053 33.3634 263.018 33.6711C262.27 33.8987 261.576 34.2783 260.981 34.7861C260.507 35.1924 260.137 35.7069 259.904 36.2861C259.706 36.7874 259.602 37.321 259.597 37.8601V39.3221C259.585 39.8793 259.703 40.4317 259.942 40.9351C260.159 41.3771 260.431 41.7902 260.75 42.1651C261.017 42.4918 261.343 42.7656 261.711 42.9721C262.044 43.1521 262.313 43.2934 262.518 43.3961C262.718 43.4471 263.235 43.6251 264.055 43.9341C264.875 44.2431 265.836 44.5871 266.939 44.9721L270.358 46.1631C271.537 46.5731 272.588 46.9317 273.51 47.2391C275.278 47.844 276.784 49.038 277.777 50.6211C278.776 52.207 279.296 54.047 279.277 55.9211V59.5351C279.26 60.566 279.091 61.5889 278.777 62.5711C278.403 63.7383 277.727 64.7857 276.817 65.6071C275.655 66.6403 274.294 67.425 272.817 67.9131C268.496 69.1437 263.916 69.1437 259.595 67.9131C258.118 67.4261 256.757 66.6412 255.595 65.6071C254.684 64.7861 254.007 63.7386 253.633 62.5711C253.319 61.5889 253.151 60.566 253.133 59.5351V57.3051H259.59C259.488 58.8518 259.984 60.3786 260.974 61.5711C261.896 62.5711 263.638 63.0711 266.201 63.0711C268.711 63.0711 270.427 62.5967 271.35 61.6481C272.364 60.4384 272.861 58.8783 272.734 57.3051C272.766 56.4656 272.58 55.6321 272.196 54.8851C271.877 54.2944 271.461 53.7614 270.966 53.3081C270.412 52.8545 269.79 52.4917 269.123 52.2331C267.584 51.6684 266.148 51.1554 264.817 50.6941C263.638 50.2861 262.498 49.8891 261.397 49.5031C260.296 49.1171 259.488 48.8481 258.975 48.6961C258.36 48.4401 257.769 48.1313 257.207 47.7731C256.495 47.326 255.849 46.7833 255.285 46.1601C254.639 45.4456 254.119 44.6266 253.748 43.7381C253.321 42.7027 253.112 41.5907 253.133 40.4711V36.7811C253.114 35.5054 253.388 34.2424 253.935 33.0896C254.481 31.9368 255.286 30.9249 256.285 30.1321C258.385 28.3641 261.69 27.4801 266.201 27.4801C268.198 27.4405 270.191 27.6867 272.119 28.2111C273.591 28.6153 274.974 29.2939 276.194 30.2111C277.213 30.9837 278.019 32.0016 278.538 33.1701C279.027 34.3113 279.276 35.5413 279.268 36.7831V38.6281H272.734C272.77 37.2393 272.294 35.8859 271.397 34.8251V34.8251Z" fill="black"/>
<path d="M300.645 27.4831C305.154 27.4831 308.459 28.3671 310.562 30.1351C311.561 30.9288 312.364 31.9408 312.91 33.0935C313.456 34.2461 313.731 35.5087 313.713 36.7841V59.5381C313.695 60.569 313.527 61.5918 313.213 62.5741C312.839 63.7411 312.163 64.7884 311.254 65.6101C310.092 66.6437 308.731 67.4285 307.254 67.9161C302.933 69.1468 298.354 69.1468 294.032 67.9161C292.555 67.4286 291.194 66.6438 290.032 65.6101C289.123 64.7879 288.447 63.7408 288.072 62.5741C287.758 61.5919 287.59 60.5691 287.572 59.5381V55.9241C287.552 54.05 288.073 52.2099 289.072 50.6241C290.064 49.0408 291.571 47.8467 293.339 47.2421C294.261 46.9354 295.311 46.5768 296.49 46.1661L299.91 44.9751C301.011 44.5904 301.973 44.2444 302.794 43.9371C303.613 43.6281 304.126 43.4501 304.33 43.3991C304.536 43.2991 304.803 43.1551 305.137 42.9751C305.505 42.7679 305.831 42.4943 306.099 42.1681C306.419 41.7937 306.689 41.3804 306.905 40.9381C307.146 40.4352 307.265 39.8826 307.252 39.3251V37.8601C307.246 37.3211 307.141 36.7878 306.944 36.2861C306.711 35.7072 306.342 35.1928 305.868 34.7861C305.273 34.279 304.58 33.8995 303.832 33.6711C302.797 33.3637 301.72 33.2213 300.641 33.2491C298.078 33.2491 296.348 33.7744 295.453 34.8251C294.553 35.8835 294.074 37.2361 294.107 38.6251H287.573V36.7841C287.565 35.5423 287.813 34.3122 288.303 33.1711C288.823 32.003 289.63 30.9852 290.648 30.2121C291.868 29.2944 293.25 28.6158 294.722 28.2121C296.652 27.6879 298.646 27.4425 300.645 27.4831V27.4831ZM307.256 47.8541C307.217 48.0896 307.128 48.3141 306.995 48.5127C306.863 48.7112 306.689 48.8794 306.487 49.0061C306.13 49.2391 305.742 49.4203 305.334 49.5441C304.565 49.8021 303.731 50.0968 302.834 50.4281C301.934 50.7621 301.105 51.0571 300.334 51.3131C299.412 51.6191 298.541 51.9268 297.722 52.2361C297.083 52.5062 296.488 52.8684 295.954 53.3111C295.454 53.77 295.026 54.3017 294.684 54.8881C294.276 55.6276 294.078 56.4642 294.109 57.3081C293.982 58.8812 294.479 60.4411 295.492 61.6511C296.416 62.5998 298.133 63.0741 300.643 63.0741C303.206 63.0741 304.948 62.5741 305.87 61.5741C306.86 60.3814 307.355 58.8548 307.254 57.3081L307.256 47.8541Z" fill="black"/>
<path d="M324.013 12.493H330.471V68.223H324.013V12.493Z" fill="black"/>
<path d="M351.918 27.483C354.376 27.3816 356.83 27.76 359.143 28.597C360.636 29.1693 361.977 30.077 363.063 31.25C363.86 32.1318 364.417 33.2044 364.678 34.364C364.851 35.1601 364.954 35.9699 364.985 36.784V40.474C364.965 41.4675 364.797 42.4525 364.485 43.396C363.991 44.7185 363.187 45.9037 362.142 46.853C361.608 47.4474 360.953 47.9198 360.22 48.238C359.595 48.5114 358.953 48.7426 358.297 48.93C357.625 49.1352 356.927 49.2386 356.224 49.237H350.38C349.724 49.2358 349.074 49.3641 348.467 49.6146C347.86 49.8652 347.309 50.233 346.845 50.697C346.348 51.1563 345.954 51.7158 345.689 52.3386C345.424 52.9614 345.294 53.6334 345.308 54.31V57.77C345.255 58.7898 345.495 59.8034 346 60.691C346.188 61.0278 346.42 61.3379 346.69 61.613C347.024 61.9186 347.416 62.1536 347.843 62.304C348.347 62.5427 348.876 62.7235 349.42 62.843C350.242 63.0151 351.081 63.0926 351.92 63.074C352.987 63.1122 354.052 62.9692 355.071 62.651C355.633 62.4655 356.174 62.2208 356.685 61.921C357.316 61.4539 357.798 60.8127 358.07 60.076C358.329 59.335 358.458 58.555 358.453 57.77H364.987V59.615C364.999 60.9474 364.696 62.2637 364.103 63.457C363.464 64.6938 362.526 65.7512 361.374 66.533C360.262 67.2579 359.042 67.8029 357.76 68.148C355.856 68.6545 353.89 68.8871 351.92 68.839C350.397 68.8607 348.876 68.7186 347.383 68.415C346.233 68.1774 345.113 67.8166 344.04 67.339C343.185 66.9645 342.394 66.4584 341.695 65.839C341.128 65.3276 340.613 64.7608 340.158 64.147C339.23 62.7941 338.771 61.174 338.851 59.535V36.784C338.876 35.9562 338.978 35.1325 339.158 34.324C339.425 33.1783 339.981 32.12 340.773 31.25C341.859 30.0763 343.201 29.1685 344.694 28.597C347.007 27.7599 349.461 27.3816 351.918 27.483V27.483ZM358.451 38.705V38.015C358.446 37.5093 358.381 37.006 358.26 36.515C358.106 35.9334 357.801 35.4026 357.376 34.976C356.818 34.4297 356.149 34.0101 355.414 33.746C354.34 33.3767 353.207 33.2073 352.071 33.246C350.884 33.2087 349.7 33.3779 348.571 33.746C347.807 34.003 347.102 34.4084 346.495 34.939C346.045 35.3425 345.713 35.8611 345.535 36.439C345.393 36.8999 345.316 37.3781 345.305 37.86V45.86C345.394 45.4173 345.64 45.0214 345.997 44.745C346.365 44.4576 346.781 44.2363 347.225 44.091C347.675 43.9408 348.14 43.838 348.611 43.784C348.968 43.7399 349.326 43.7142 349.685 43.707H354.067C354.638 43.7119 355.205 43.6021 355.733 43.3841C356.261 43.1662 356.74 42.8445 357.142 42.438C357.559 42.051 357.891 41.581 358.116 41.0581C358.341 40.5353 358.455 39.9712 358.449 39.402V38.709L358.451 38.705Z" fill="black"/>
<path d="M390.158 34.825C389.26 33.7737 387.53 33.2483 384.969 33.249C383.89 33.2209 382.814 33.3634 381.779 33.671C381.031 33.899 380.337 34.2785 379.742 34.786C379.268 35.1923 378.898 35.7068 378.665 36.286C378.467 36.7873 378.363 37.3209 378.358 37.86V39.322C378.345 39.8794 378.464 40.4319 378.704 40.935C378.922 41.3766 379.193 41.7897 379.511 42.165C379.779 42.4913 380.104 42.765 380.472 42.972C380.805 43.152 381.072 43.293 381.279 43.396C381.479 43.447 381.997 43.625 382.817 43.934C383.637 44.243 384.597 44.587 385.699 44.972L389.119 46.163C390.298 46.573 391.348 46.9317 392.271 47.239C394.039 47.8441 395.545 49.0381 396.538 50.621C397.537 52.207 398.057 54.047 398.038 55.921V59.535C398.021 60.566 397.852 61.5888 397.538 62.571C397.162 63.7375 396.487 64.7846 395.578 65.607C394.416 66.6409 393.055 67.4257 391.578 67.913C387.257 69.1437 382.678 69.1437 378.357 67.913C376.88 67.4263 375.518 66.6414 374.357 65.607C373.447 64.7863 372.77 63.7386 372.397 62.571C372.082 61.589 371.914 60.5661 371.897 59.535V57.305H378.354C378.253 58.8517 378.748 60.3783 379.738 61.571C380.66 62.571 382.402 63.071 384.965 63.071C387.476 63.071 389.193 62.5967 390.116 61.648C391.129 60.438 391.626 58.878 391.498 57.305C391.529 56.4656 391.344 55.6322 390.96 54.885C390.641 54.2949 390.226 53.762 389.732 53.308C389.178 52.854 388.554 52.4912 387.886 52.233C386.347 51.6683 384.912 51.1553 383.581 50.694C382.401 50.286 381.261 49.889 380.16 49.503C379.059 49.117 378.252 48.848 377.739 48.696C377.124 48.44 376.533 48.1312 375.971 47.773C375.259 47.326 374.613 46.7832 374.049 46.16C373.403 45.4456 372.883 44.6266 372.512 43.738C372.085 42.7028 371.875 41.5907 371.897 40.471V36.781C371.878 35.5052 372.153 34.2422 372.699 33.0893C373.246 31.9365 374.05 30.9247 375.05 30.132C377.149 28.364 380.454 27.48 384.965 27.48C386.963 27.4407 388.957 27.6869 390.885 28.211C392.356 28.6155 393.738 29.294 394.957 30.211C395.977 30.9832 396.784 32.0013 397.303 33.17C397.792 34.3113 398.04 35.5413 398.032 36.783V38.628H391.498C391.533 37.2389 391.056 35.8854 390.158 34.825V34.825Z" fill="black"/>
<g opacity="0.65">
<path d="M57.473 34.422C52.018 24.777 42.513 10.436 37.144 2.50002C34.882 -0.84298 31.396 -0.83198 29.144 2.52402C23.817 10.444 14.403 24.716 8.84401 34.33C5.52737 39.4223 3.76691 45.3709 3.77801 51.448C3.76301 68.3 16.887 81.978 33.093 81.99C49.299 82.002 62.455 68.347 62.473 51.5C62.4988 45.4428 60.7615 39.5089 57.473 34.422Z" fill="black"/>
</g>
<g opacity="0.7">
<path d="M44.2001 27.184C34.7691 20.589 19.4911 11.322 10.9361 6.237C7.33106 4.095 4.18406 5.465 3.70506 9.381C2.57706 18.624 0.71806 35.2 0.16706 46.067C-0.436985 52.0937 0.742867 58.1651 3.56006 63.527C11.3971 78.777 29.6441 86.033 44.3091 79.727C58.9741 73.421 64.5181 55.929 56.6771 40.68C53.8213 35.1314 49.5078 30.4657 44.2001 27.184V27.184Z" fill="black"/>
</g>
<g opacity="0.7">
<path d="M21.0981 27.184C30.5271 20.589 45.8061 11.322 54.3621 6.237C57.9621 4.095 61.1141 5.465 61.5921 9.381C62.7181 18.624 64.5861 35.2 65.1291 46.067C65.7349 52.0936 64.5557 58.1653 61.7381 63.527C53.9001 78.777 35.6551 86.033 20.9881 79.727C6.32112 73.421 0.783118 55.929 8.61812 40.68C11.4738 35.1304 15.7885 30.4644 21.0981 27.184V27.184Z" fill="black"/>
</g>
</svg>
