<svg width="402" height="270" viewBox="0 0 402 270" fill="none" xmlns="http://www.w3.org/2000/svg">
<path d="M91.8639 55.3415L146.609 110.08L201.354 55.3415L146.609 0.603008L91.8639 55.3415Z" fill="#F7DF1D"/>
<path d="M153.761 117.867L174.743 138.846L195.725 117.867L174.743 96.887L153.761 117.867Z" fill="#F7DF1D"/>
<path d="M12.7898 70.3027L46.1338 103.643L79.4778 70.3027L46.1338 36.9627L12.7898 70.3027Z" fill="#F7DF1D"/>
<path d="M202.482 167.857L252.408 217.777L302.005 168.186L252.079 118.266L202.482 167.857Z" fill="#F7DF1D"/>
<path d="M0.650677 177.509L92.3916 269.238L184.133 177.509L92.3916 85.7789L0.650677 177.509Z" fill="#F7DF1D"/>
<path d="M221.388 100.618L207.872 114.128L184.668 90.6572L209.627 65.7341L207.753 64L181 90.8185L207.872 118L224.658 101.183L221.388 100.618Z" fill="#F7DF1D"/>
<path d="M189.931 90.7782L212.178 68.1539L210.703 66.7827L186.821 90.6572L207.872 111.991L219.594 100.296L217.003 99.8522L207.912 108.886L189.931 90.7782Z" fill="#F7DF1D"/>
<path d="M221.827 98.0778L229.243 90.5766L221.269 82.3496L205.44 98.3601L206.955 99.8522L221.508 85.1323L226.532 90.254L218.876 97.6745L221.827 98.0778Z" fill="white"/>
<path d="M221.508 77.3892L203.128 95.9806L204.404 97.2712L221.308 80.1718L231.396 90.5766L223.701 98.36L226.731 98.8036L234.745 91.0606L221.508 77.3892Z" fill="white"/>
<path d="M250.374 81.3815C249.497 80.5346 248.181 80.091 247.025 80.091C244.313 80.091 242.519 81.6638 242.519 84.8094C242.519 86.8662 243.636 89.4472 247.025 89.4472C248.021 89.4472 248.978 89.2859 250.055 88.439V86.1403H246.626V83.4382H252.806V89.7295C251.57 91.504 249.616 92.4315 246.985 92.4315C241.483 92.4315 239.409 88.56 239.409 84.8094C239.409 80.7362 241.762 77.147 247.025 77.147C248.978 77.147 250.732 77.6712 252.367 79.365L250.374 81.3815Z" fill="white"/>
<path d="M257.75 81.8251V87.2291C257.75 88.8019 258.427 89.6085 259.823 89.6085C261.178 89.6488 262.095 88.439 262.095 87.1081V81.8251H265.006V92.0282H262.335L262.215 90.6974C261.298 91.9072 260.182 92.2702 258.946 92.2299C256.673 92.2299 254.759 91.1813 254.759 87.2291V81.8251H257.75Z" fill="white"/>
<path d="M270.628 79.1231C270.628 81.3411 267.279 81.3411 267.279 79.1231C267.279 76.905 270.628 76.905 270.628 79.1231ZM267.478 81.8251V92.0282H270.428V81.8251H267.478Z" fill="white"/>
<path d="M275.89 77.5906V92.0282H272.98V77.5906H275.89Z" fill="white"/>
<path d="M281.392 77.5906V92.0282H278.482V77.5906H281.392Z" fill="white"/>
<path d="M286.336 87.9147C286.496 88.9229 287.413 89.7295 289.087 89.7295C289.885 89.7295 291.001 89.5279 291.719 88.9229L293.353 90.778C292.277 91.8669 290.523 92.2702 289.008 92.2702C285.34 92.2702 283.346 90.0925 283.346 86.8258C283.346 83.7205 285.419 81.5428 288.689 81.5428C292.117 81.5428 294.35 83.7205 293.712 87.8744L286.336 87.9147ZM291.081 85.737C291.001 84.6078 289.885 84.1238 288.689 84.1238C287.493 84.1238 286.615 84.7287 286.336 85.737H291.081Z" fill="white"/>
<path d="M298.417 81.8654L298.656 82.9946C299.334 82.0267 300.211 81.6234 301.367 81.6234C302.324 81.6234 303.122 81.9057 303.839 82.551L302.603 84.8901C302.125 84.5271 301.606 84.3658 301.008 84.3658C299.733 84.3658 298.656 85.1724 298.656 86.7048V92.0282H295.706V81.8654H298.417Z" fill="white"/>
<path d="M311.454 92.0282V86.5436C311.454 85.2127 310.936 84.3255 309.7 84.3255C308.544 84.3255 307.866 85.4143 307.866 86.5839V92.0282H304.916V81.8251H307.507L307.707 82.9946C308.345 81.8654 309.501 81.6235 310.378 81.6235C311.494 81.6235 312.651 82.0267 313.328 83.5189C314.245 82.1477 315.202 81.5831 316.677 81.5831C318.79 81.5831 320.704 82.672 320.704 86.4629V92.0282H317.754V86.5032C317.754 85.2127 317.395 84.3658 316.239 84.3658C315.083 84.3658 314.365 85.374 314.365 86.5436V92.0282H311.454Z" fill="white"/>
<path d="M322.459 86.9468C322.459 83.8819 324.612 81.5831 327.961 81.5831C331.31 81.5831 333.503 83.8415 333.503 86.9468C333.503 90.0118 331.389 92.2702 327.961 92.2702C324.572 92.2702 322.459 90.0521 322.459 86.9468ZM330.512 86.9468C330.512 85.6563 329.755 84.2448 327.961 84.2448C326.206 84.2448 325.409 85.6563 325.409 86.9468C325.409 88.2374 326.166 89.6085 327.961 89.6085C329.755 89.6085 330.512 88.318 330.512 86.9468Z" fill="white"/>
<path d="M353.876 92.0282H350.328L346.66 87.2694H344.347V92.0282H341.157V77.5906C343.47 77.5906 345.623 77.5906 347.935 77.5906C351.404 77.5906 353.238 79.9296 353.238 82.4703C353.198 84.3658 352.68 86.0193 349.929 87.0275L353.836 91.8266L353.876 92.0282ZM344.387 80.3732V84.5674H348.015C349.49 84.5674 350.128 83.4382 350.128 82.551C350.088 81.5428 349.49 80.3732 347.975 80.3732H344.387Z" fill="white"/>
<path d="M354.554 86.9468C354.554 83.8819 356.707 81.5831 360.056 81.5831C363.405 81.5831 365.598 83.8415 365.598 86.9468C365.598 90.0118 363.485 92.2702 360.056 92.2702C356.667 92.2702 354.554 90.0521 354.554 86.9468ZM362.647 86.9468C362.647 85.6563 361.89 84.2448 360.096 84.2448C358.341 84.2448 357.544 85.6563 357.544 86.9468C357.544 88.2374 358.302 89.6085 360.096 89.6085C361.89 89.6085 362.647 88.318 362.647 86.9468Z" fill="white"/>
<path d="M378.077 77.5906V92.0282H375.446L375.246 90.7377C374.289 91.9476 373.173 92.2299 371.897 92.2299C368.947 92.2299 366.914 90.1328 366.914 86.9468C366.914 83.6399 368.987 81.6234 371.937 81.6234C373.133 81.6234 374.25 81.9864 375.087 83.0753V77.5906H378.077ZM369.904 86.9468C369.904 88.3986 370.821 89.5682 372.376 89.5682C373.691 89.5682 375.087 88.8826 375.087 86.9468C375.087 85.2127 373.731 84.3255 372.376 84.3255C370.861 84.3255 369.904 85.4143 369.904 86.9468Z" fill="white"/>
<path d="M388.363 81.8251H391.115C391.115 85.2127 391.115 88.6406 391.115 92.0282H388.443L388.284 90.7377C387.606 91.8266 386.171 92.2299 385.174 92.2299C382.144 92.2702 379.951 90.2538 379.951 86.9065C379.951 83.5189 382.263 81.5428 385.254 81.5831C386.529 81.5831 387.686 82.0671 388.244 82.9946L388.363 81.8251ZM382.941 86.9468C382.941 88.6406 384.137 89.6488 385.612 89.6488C387.247 89.6488 388.284 88.3583 388.284 87.0678C388.284 85.616 387.367 84.2448 385.612 84.2448C384.137 84.2448 382.941 85.253 382.941 86.9468Z" fill="white"/>
<path d="M399.966 84.7287C399.208 84.2045 398.491 84.0028 397.574 84.0028C396.617 84.0028 396.138 84.3658 396.138 84.8497C396.138 85.4143 396.656 85.737 397.613 85.737C399.607 85.8176 401.999 86.2209 401.999 89.0036C402.039 90.6571 400.803 92.4315 397.574 92.4315C396.098 92.4315 394.543 92.1492 392.829 90.6974L394.105 88.6003C395.341 89.6488 396.537 89.8505 397.613 89.8908C398.491 89.9311 399.128 89.5682 399.128 89.0036C399.128 88.5196 398.77 88.1163 397.414 88.076C395.54 87.9954 393.188 87.1888 393.188 84.8094C393.188 82.5107 395.341 81.5428 397.534 81.5428C399.089 81.5428 400.325 81.9461 401.401 82.8736L399.966 84.7287Z" fill="white"/>
<path d="M241.243 102.675V97.5129H244.872V98.3195H242.081V99.8923H244.752V100.659H242.081V102.675H241.243Z" fill="white"/>
<path d="M247.942 99.0051V100.941C247.942 101.546 248.3 101.989 248.938 101.989C249.536 101.989 249.935 101.505 249.935 100.901V99.0051H250.693V102.635H250.015L249.975 102.11C249.616 102.514 249.257 102.715 248.739 102.715C247.862 102.715 247.224 102.07 247.224 100.981V99.0454L247.942 99.0051Z" fill="white"/>
<path d="M254.161 97.5129V102.675H253.404V97.5129H254.161Z" fill="white"/>
<path d="M257.67 97.5129V102.675H256.912V97.5129H257.67Z" fill="white"/>
<path d="M260.341 100.175H263.012V100.86H260.341V100.175Z" fill="white"/>
<path d="M267.956 99.9326C267.677 99.6503 267.358 99.61 266.999 99.61C266.521 99.61 266.242 99.7713 266.242 100.054C266.242 100.336 266.561 100.457 267.039 100.538C267.717 100.578 268.554 100.739 268.554 101.667C268.554 102.352 267.956 102.836 267.039 102.836C266.441 102.836 265.883 102.715 265.405 102.151L265.803 101.626C266.122 101.989 266.641 102.151 267.079 102.151C267.438 102.151 267.837 102.03 267.837 101.667C267.837 101.344 267.518 101.223 266.999 101.183C266.322 101.102 265.524 100.901 265.524 100.094C265.524 99.2874 266.361 99.0051 266.999 99.0051C267.558 99.0051 267.996 99.1261 268.395 99.489L267.956 99.9326Z" fill="white"/>
<path d="M272.143 97.9969V99.0454H273.179V99.6907H272.103V101.425C272.103 101.828 272.262 102.03 272.621 102.03C272.781 102.03 272.94 101.989 273.1 101.909L273.299 102.554C273.06 102.675 272.82 102.715 272.581 102.715C271.784 102.756 271.345 102.272 271.345 101.425V99.6907H270.667V99.0454H271.345V98.0775L272.143 97.9969Z" fill="white"/>
<path d="M278.522 99.0454H279.24C279.24 100.255 279.24 101.465 279.24 102.675H278.522L278.482 102.07C278.243 102.554 277.685 102.756 277.246 102.756C276.209 102.756 275.412 102.07 275.412 100.82C275.412 99.61 276.249 98.9244 277.286 98.9244C277.804 98.9244 278.283 99.1664 278.522 99.5697V99.0454ZM276.17 100.82C276.17 101.586 276.688 102.03 277.326 102.03C278.881 102.03 278.881 99.61 277.326 99.61C276.688 99.6503 276.17 100.094 276.17 100.82Z" fill="white"/>
<path d="M284.981 102.191C284.582 102.594 284.143 102.756 283.625 102.756C282.589 102.756 281.711 102.11 281.711 100.86C281.711 99.61 282.549 98.9648 283.625 98.9648C284.104 98.9648 284.542 99.1261 284.941 99.489L284.462 100.013C284.223 99.8117 283.944 99.6907 283.665 99.6907C283.027 99.6907 282.509 100.175 282.509 100.86C282.509 101.626 283.027 102.03 283.665 102.03C283.984 102.03 284.303 101.949 284.502 101.707L284.981 102.191Z" fill="white"/>
<path d="M288.091 97.5129V100.538L289.406 99.0454H290.323V99.0857L288.768 100.739L290.523 102.594V102.635H289.606L288.051 100.941V102.635H287.293V97.4726L288.091 97.5129Z" fill="white"/>
<path d="M300.052 97.5129V100.538C300.052 101.868 299.214 102.756 297.859 102.756C296.583 102.756 295.666 101.949 295.666 100.578H296.463C296.463 101.465 296.942 101.989 297.859 101.989C298.736 101.989 299.214 101.384 299.214 100.538V98.2792H297.58V97.5129H300.052Z" fill="white"/>
<path d="M305.594 99.0454H306.311C306.311 100.255 306.311 101.465 306.311 102.675H305.594L305.554 102.07C305.314 102.554 304.756 102.756 304.318 102.756C303.281 102.756 302.484 102.07 302.484 100.82C302.484 99.61 303.321 98.9244 304.358 98.9244C304.876 98.9244 305.354 99.1664 305.594 99.5697V99.0454ZM303.241 100.86C303.241 101.626 303.759 102.07 304.397 102.07C305.952 102.07 305.952 99.6503 304.397 99.6503C303.759 99.6503 303.241 100.094 303.241 100.86Z" fill="white"/>
<path d="M312.531 99.0051L311.016 102.675H310.179L308.663 99.0051H309.501L309.979 100.175L310.617 101.868L311.175 100.336L311.733 99.0051H312.531Z" fill="white"/>
<path d="M317.594 99.0454H318.312C318.312 100.255 318.312 101.465 318.312 102.675H317.594L317.555 102.07C317.315 102.554 316.757 102.756 316.319 102.756C315.282 102.756 314.485 102.07 314.485 100.82C314.485 99.61 315.322 98.9244 316.358 98.9244C316.877 98.9244 317.355 99.1664 317.594 99.5697V99.0454ZM315.242 100.86C315.242 101.626 315.76 102.07 316.398 102.07C317.953 102.07 317.953 99.6503 316.398 99.6503C315.76 99.6503 315.242 100.094 315.242 100.86Z" fill="white"/>
<path d="M324.173 98.6421C323.934 98.2792 323.455 98.0775 322.897 98.0775C322.219 98.0775 321.701 98.3598 321.701 98.8438C321.701 99.3277 322.259 99.489 322.937 99.5697C323.974 99.731 324.97 100.013 324.97 101.183C324.97 102.352 323.934 102.756 322.857 102.756C321.9 102.756 321.143 102.473 320.664 101.586L321.262 101.183C321.621 101.828 322.259 102.03 322.857 102.03C323.455 102.03 324.133 101.828 324.133 101.183C324.133 100.618 323.535 100.417 322.817 100.336C321.821 100.215 320.824 99.9326 320.824 98.8438C320.824 97.7549 321.86 97.3516 322.777 97.3516C323.495 97.3516 324.253 97.5129 324.691 98.2388L324.173 98.6421Z" fill="white"/>
<path d="M330.512 102.191C330.114 102.594 329.675 102.756 329.157 102.756C328.12 102.756 327.243 102.11 327.243 100.86C327.243 99.61 328.08 98.9648 329.157 98.9648C329.635 98.9648 330.074 99.1261 330.472 99.489L329.994 100.013C329.755 99.8117 329.476 99.6907 329.197 99.6907C328.559 99.6907 328.04 100.175 328.04 100.86C328.04 101.626 328.559 102.03 329.197 102.03C329.516 102.03 329.834 101.949 330.034 101.707L330.512 102.191Z" fill="white"/>
<path d="M333.542 99.0454L333.582 99.5294C333.861 99.0454 334.26 98.9648 334.659 98.9648C335.018 98.9648 335.337 99.0857 335.536 99.2874L335.177 99.9326C334.978 99.7713 334.818 99.731 334.539 99.731C334.021 99.731 333.582 100.054 333.582 100.739V102.715H332.825V99.0857L333.542 99.0454Z" fill="white"/>
<path d="M338.606 97.9565C338.606 98.6018 337.689 98.6018 337.689 97.9565C337.649 97.3516 338.606 97.3516 338.606 97.9565ZM337.729 99.0051V102.675H338.486V99.0051H337.729Z" fill="white"/>
<path d="M341.197 104.369V99.0454H341.915L341.955 99.6503C342.234 99.2067 342.752 99.0051 343.231 99.0051C344.307 99.0051 345.065 99.8116 345.065 100.901C345.065 101.989 344.347 102.796 343.231 102.796C342.792 102.796 342.234 102.635 341.955 102.191V104.409L341.197 104.369ZM344.267 100.86C344.267 100.175 343.829 99.6907 343.111 99.6907C342.433 99.6907 341.995 100.215 341.995 100.86C341.995 101.505 342.473 102.03 343.111 102.03C343.789 101.989 344.267 101.546 344.267 100.86Z" fill="white"/>
<path d="M348.613 97.9969V99.0454H349.65V99.6907H348.573V101.425C348.573 101.828 348.733 102.03 349.092 102.03C349.251 102.03 349.411 101.989 349.57 101.909L349.769 102.554C349.53 102.675 349.291 102.715 349.052 102.715C348.254 102.756 347.816 102.272 347.816 101.425V99.6907H347.138V99.0454H347.816V98.0775L348.613 97.9969Z" fill="white"/>
<path d="M359.498 102.675H355.71C355.71 100.941 355.71 99.247 355.71 97.5129H359.458V98.3195H356.547V99.731H359.378V100.497H356.547V101.868H359.498V102.675Z" fill="white"/>
<path d="M364.76 102.675V100.739C364.76 100.094 364.402 99.6907 363.804 99.6907C363.206 99.6907 362.807 100.175 362.807 100.78V102.675H362.049V99.0454H362.727L362.767 99.5697C363.126 99.1664 363.525 99.0051 363.963 99.0051C364.84 99.0051 365.518 99.6503 365.518 100.739V102.675H364.76Z" fill="white"/>
<path d="M371.259 98.6824L371.818 99.126L371.379 99.6503C371.658 100.013 371.818 100.336 371.818 100.78C371.818 101.425 371.499 101.949 370.861 102.191C371.578 102.433 371.818 102.957 371.818 103.361C371.818 104.369 370.861 104.853 369.904 104.853C368.748 104.853 367.99 104.248 367.99 103.24H368.748C368.708 103.804 369.306 104.127 369.904 104.127C370.462 104.127 371.06 103.885 371.06 103.401C371.06 102.877 370.582 102.594 369.944 102.594C368.787 102.594 367.99 101.909 367.99 100.78C367.99 99.5697 368.947 98.9647 369.944 98.9647C370.263 98.9647 370.661 99.0454 370.9 99.2067L371.259 98.6824ZM368.708 100.739C368.708 101.465 369.266 101.868 369.904 101.868C370.582 101.868 371.06 101.425 371.06 100.739C371.06 100.013 370.502 99.61 369.904 99.61C369.266 99.61 368.708 99.973 368.708 100.739Z" fill="white"/>
<path d="M375.167 97.9565C375.167 98.6018 374.25 98.6018 374.25 97.9565C374.21 97.3516 375.167 97.3516 375.167 97.9565ZM374.329 99.0051V102.675H375.087V99.0051H374.329Z" fill="white"/>
<path d="M380.469 102.675V100.739C380.469 100.094 380.11 99.6907 379.512 99.6907C378.914 99.6907 378.516 100.175 378.516 100.78V102.675H377.758V99.0454H378.436L378.476 99.5697C378.835 99.1664 379.233 99.0051 379.672 99.0051C380.549 99.0051 381.227 99.6503 381.227 100.739V102.675H380.469Z" fill="white"/>
<path d="M384.456 101.142C384.536 101.707 384.975 102.07 385.612 102.07C385.971 102.07 386.45 101.949 386.649 101.667L387.127 102.151C386.769 102.554 386.131 102.756 385.573 102.756C384.376 102.756 383.619 101.989 383.619 100.82C383.619 99.731 384.376 98.9244 385.493 98.9244C386.649 98.9244 387.446 99.6503 387.287 101.102L384.456 101.142ZM386.649 100.497C386.609 99.9326 386.171 99.61 385.573 99.61C385.014 99.61 384.576 99.8923 384.456 100.497H386.649Z" fill="white"/>
<path d="M390.357 101.142C390.437 101.707 390.875 102.07 391.513 102.07C391.872 102.07 392.35 101.949 392.55 101.667L393.028 102.151C392.669 102.554 392.032 102.756 391.473 102.756C390.277 102.756 389.52 101.989 389.52 100.82C389.52 99.731 390.277 98.9244 391.394 98.9244C392.55 98.9244 393.347 99.6503 393.188 101.102L390.357 101.142ZM392.55 100.497C392.51 99.9326 392.071 99.61 391.473 99.61C390.915 99.61 390.477 99.8923 390.357 100.497H392.55Z" fill="white"/>
<path d="M396.417 99.0454L396.457 99.5294C396.736 99.0454 397.135 98.9648 397.534 98.9648C397.892 98.9648 398.211 99.0857 398.411 99.2874L398.052 99.9326C397.853 99.7713 397.693 99.731 397.414 99.731C396.896 99.731 396.457 100.054 396.457 100.739V102.715H395.7V99.0857L396.417 99.0454Z" fill="white"/>
<path d="M339.715 86.1809L337.517 83.9566L335.318 86.1809L337.517 88.4052L339.715 86.1809Z" fill="#F7DF1D"/>
</svg>
