<svg width="1440" height="900" viewBox="0 0 1440 900" fill="none" xmlns="http://www.w3.org/2000/svg">
<mask id="mask0_8_1" style="mask-type:alpha" maskUnits="userSpaceOnUse" x="0" y="0" width="1440" height="900">
<rect width="1440" height="900" fill="#C4C4C4"/>
</mask>
<g mask="url(#mask0_8_1)">
<path d="M1163.38 -35.9326L1623.35 424.135L2083.32 -35.9326L1623.35 -496L1163.38 -35.9326Z" fill="#F7DF1D"/>
<path d="M498.994 89.8111L779.152 370.027L1059.31 89.811L779.152 -190.405L498.994 89.8111Z" fill="#F7DF1D"/>
<path d="M397 990.861L1167.81 1761.83L1938.62 990.861L1167.81 219.889L397 990.861Z" fill="#F7DF1D"/>
<path d="M1042.93 864L720 540.885L1090.17 175L1099.33 184.345L738.5 540.885L1042.93 845.49L1220.57 669.915L1236.73 672.252L1042.93 864Z" fill="black"/>
<path d="M1251.1 658.774L1234.22 657.156L1351.68 539.627L1232.96 418.325L991.926 659.313L982.766 650.148L1232.96 399.815L1370 539.627L1251.1 658.774Z" fill="#F7DF1D"/>
</g>
</svg>
